<svg width="25" height="24" viewBox="0 0 25 24" fill="none" xmlns="http://www.w3.org/2000/svg">
<path d="M8.7561 8V5.2C8.7561 4.0799 8.7561 3.51984 8.97409 3.09202C9.16584 2.71569 9.4718 2.40973 9.84812 2.21799C10.2759 2 10.836 2 11.9561 2H19.5561C20.6762 2 21.2363 2 21.6641 2.21799C22.0404 2.40973 22.3464 2.71569 22.5381 3.09202C22.7561 3.51984 22.7561 4.0799 22.7561 5.2V12.8C22.7561 13.9201 22.7561 14.4802 22.5381 14.908C22.3464 15.2843 22.0404 15.5903 21.6641 15.782C21.2363 16 20.6762 16 19.5561 16H16.7561M5.9561 22H13.5561C14.6762 22 15.2363 22 15.6641 21.782C16.0404 21.5903 16.3464 21.2843 16.5381 20.908C16.7561 20.4802 16.7561 19.9201 16.7561 18.8V11.2C16.7561 10.0799 16.7561 9.51984 16.5381 9.09202C16.3464 8.71569 16.0404 8.40973 15.6641 8.21799C15.2363 8 14.6762 8 13.5561 8H5.9561C4.836 8 4.27595 8 3.84812 8.21799C3.4718 8.40973 3.16584 8.71569 2.97409 9.09202C2.7561 9.51984 2.7561 10.0799 2.7561 11.2V18.8C2.7561 19.9201 2.7561 20.4802 2.97409 20.908C3.16584 21.2843 3.4718 21.5903 3.84812 21.782C4.27595 22 4.836 22 5.9561 22Z" stroke="currentColor" stroke-width="1.6" stroke-linecap="round" stroke-linejoin="round"/>
</svg>
