<svg width="25" height="24" viewBox="0 0 25 24" fill="none" xmlns="http://www.w3.org/2000/svg">
<path d="M3.7561 9H21.7561M9.7561 9L9.7561 21M8.5561 3H16.9561C18.6363 3 19.4763 3 20.1181 3.32698C20.6826 3.6146 21.1415 4.07354 21.4291 4.63803C21.7561 5.27976 21.7561 6.11984 21.7561 7.8V16.2C21.7561 17.8802 21.7561 18.7202 21.4291 19.362C21.1415 19.9265 20.6826 20.3854 20.1181 20.673C19.4763 21 18.6363 21 16.9561 21H8.5561C6.87595 21 6.03587 21 5.39413 20.673C4.82965 20.3854 4.3707 19.9265 4.08308 19.362C3.7561 18.7202 3.7561 17.8802 3.7561 16.2V7.8C3.7561 6.11984 3.7561 5.27976 4.08308 4.63803C4.3707 4.07354 4.82965 3.6146 5.39413 3.32698C6.03587 3 6.87595 3 8.5561 3Z" stroke="currentColor" stroke-width="1.6" stroke-linecap="round" stroke-linejoin="round"/>
</svg>
