<svg width="25" height="24" viewBox="0 0 25 24" fill="none" xmlns="http://www.w3.org/2000/svg">
<path d="M17.7561 10V8C17.7561 5.23858 15.5175 3 12.7561 3C9.99468 3 7.7561 5.23858 7.7561 8V10M12.7561 14.5V16.5M9.5561 21H15.9561C17.6363 21 18.4763 21 19.1181 20.673C19.6826 20.3854 20.1415 19.9265 20.4291 19.362C20.7561 18.7202 20.7561 17.8802 20.7561 16.2V14.8C20.7561 13.1198 20.7561 12.2798 20.4291 11.638C20.1415 11.0735 19.6826 10.6146 19.1181 10.327C18.4763 10 17.6363 10 15.9561 10H9.5561C7.87595 10 7.03587 10 6.39413 10.327C5.82965 10.6146 5.3707 11.0735 5.08308 11.638C4.7561 12.2798 4.7561 13.1198 4.7561 14.8V16.2C4.7561 17.8802 4.7561 18.7202 5.08308 19.362C5.3707 19.9265 5.82965 20.3854 6.39413 20.673C7.03587 21 7.87595 21 9.5561 21Z" stroke="currentColor" stroke-width="1.6" stroke-linecap="round" stroke-linejoin="round"/>
</svg>
