<svg width="25" height="24" viewBox="0 0 25 24" fill="none" xmlns="http://www.w3.org/2000/svg">
<path d="M10.1513 19.3711L10.7357 20.6856C10.9095 21.0768 11.193 21.4093 11.5519 21.6426C11.9109 21.8759 12.3298 22.0001 12.7579 22C13.186 22.0001 13.605 21.8759 13.9639 21.6426C14.3229 21.4093 14.6064 21.0768 14.7802 20.6856L15.3646 19.3711C15.5726 18.9047 15.9226 18.5159 16.3646 18.26C16.8094 18.0034 17.3239 17.8941 17.8346 17.9478L19.2646 18.1C19.6903 18.145 20.1199 18.0656 20.5013 17.8713C20.8827 17.6771 21.1996 17.3763 21.4135 17.0056C21.6277 16.635 21.7297 16.2103 21.7072 15.7829C21.6847 15.3555 21.5387 14.9438 21.2868 14.5978L20.4402 13.4344C20.1387 13.0171 19.9776 12.5148 19.9802 12C19.9801 11.4866 20.1427 10.9864 20.4446 10.5711L21.2913 9.40778C21.5431 9.06175 21.6892 8.65007 21.7117 8.22267C21.7342 7.79528 21.6321 7.37054 21.4179 7C21.204 6.62923 20.8872 6.32849 20.5057 6.13423C20.1243 5.93997 19.6947 5.86053 19.269 5.90556L17.839 6.05778C17.3284 6.11141 16.8138 6.00212 16.369 5.74556C15.9262 5.48825 15.5761 5.09736 15.369 4.62889L14.7802 3.31444C14.6064 2.92317 14.3229 2.59072 13.9639 2.3574C13.605 2.12408 13.186 1.99993 12.7579 2C12.3298 1.99993 11.9109 2.12408 11.5519 2.3574C11.193 2.59072 10.9095 2.92317 10.7357 3.31444L10.1513 4.62889C9.9442 5.09736 9.59414 5.48825 9.15127 5.74556C8.70648 6.00212 8.19194 6.11141 7.68127 6.05778L6.24682 5.90556C5.82115 5.86053 5.39156 5.93997 5.01014 6.13423C4.62871 6.32849 4.31184 6.62923 4.09793 7C3.88375 7.37054 3.78172 7.79528 3.8042 8.22267C3.82669 8.65007 3.97273 9.06175 4.2246 9.40778L5.07127 10.5711C5.37321 10.9864 5.53581 11.4866 5.53571 12C5.53581 12.5134 5.37321 13.0137 5.07127 13.4289L4.2246 14.5922C3.97273 14.9382 3.82669 15.3499 3.8042 15.7773C3.78172 16.2047 3.88375 16.6295 4.09793 17C4.31205 17.3706 4.62896 17.6712 5.01033 17.8654C5.3917 18.0596 5.82119 18.1392 6.24682 18.0944L7.67682 17.9422C8.18749 17.8886 8.70204 17.9979 9.14682 18.2544C9.59135 18.511 9.94303 18.902 10.1513 19.3711Z" stroke="currentColor" stroke-width="1.6" stroke-linecap="round" stroke-linejoin="round"/>
<path d="M12.7561 15C14.413 15 15.7561 13.6569 15.7561 12C15.7561 10.3431 14.413 9 12.7561 9C11.0993 9 9.75615 10.3431 9.75615 12C9.75615 13.6569 11.0993 15 12.7561 15Z" stroke="currentColor" stroke-width="1.6" stroke-linecap="round" stroke-linejoin="round"/>
</svg>
