<svg width="20" height="21" viewBox="0 0 20 21" fill="none" xmlns="http://www.w3.org/2000/svg">
<circle cx="10" cy="10.5" r="10" fill="#265FAC"/>
<path fill-rule="evenodd" clip-rule="evenodd" d="M13.1393 8.3752C13.1393 8.3752 14.6976 8.57266 14.8417 7H16.371V7.11953C16.371 8.64743 15.1324 9.88604 13.6045 9.88604H13.1425V11.8557C13.1375 13.5092 11.7983 14.8483 10.1448 14.8533H9.65703C8.00175 14.8532 6.65996 13.5112 6.65996 11.856V9.89717L6.2167 9.88516C4.70431 9.84358 3.4999 8.60554 3.5 7.09258V7.0293H5.03633C5.03633 7.0293 5.1377 8.46484 6.67432 8.37109V7H8.2042V8.3752H11.5769V7H13.1393V8.3752ZM10.771 13.1717C11.2892 12.8592 11.5997 12.2925 11.5842 11.6875V9.85352H8.21855V11.6875V11.7414C8.22245 12.3465 8.55092 12.903 9.07883 13.1988C9.60675 13.4947 10.2528 13.4843 10.771 13.1717Z" fill="white"/>
</svg>
