<svg width="20" height="21" viewBox="0 0 20 21" fill="none" xmlns="http://www.w3.org/2000/svg">
<path d="M19.6986 12.919C18.363 18.2762 12.937 21.5365 7.57919 20.2006C2.22361 18.865 -1.03667 13.4387 0.299485 8.08197C1.63447 2.72419 7.06044 -0.536338 12.4166 0.799234C17.7741 2.13481 21.0341 7.5617 19.6984 12.9191L19.6985 12.919H19.6986Z" fill="url(#paint0_linear_10047_139)"/>
<path fill-rule="evenodd" clip-rule="evenodd" d="M14.4089 9.07522C14.6079 7.74444 13.5947 7.02909 12.2093 6.55188L12.6588 4.74922L11.5614 4.47579L11.1239 6.23099C10.8354 6.15904 10.5392 6.09125 10.2447 6.02404L10.6854 4.25726L9.58876 3.98383L9.13907 5.7859C8.90035 5.73155 8.66588 5.67783 8.43839 5.62123L8.43966 5.61556L6.92642 5.23767L6.63451 6.40969C6.63451 6.40969 7.44864 6.59632 7.43148 6.6078C7.87584 6.71871 7.9562 7.01286 7.94286 7.24602L7.4309 9.29967C7.46149 9.30744 7.50118 9.31868 7.54498 9.33628L7.51308 9.32832C7.48601 9.32155 7.45788 9.31451 7.42899 9.30759L6.7114 12.1845C6.65709 12.3195 6.51925 12.5221 6.20858 12.4451C6.21958 12.4611 5.41102 12.2461 5.41102 12.2461L4.86621 13.5022L6.29421 13.8582C6.45058 13.8974 6.6051 13.9377 6.75806 13.9776L6.7581 13.9776C6.86499 14.0054 6.97112 14.0331 7.07657 14.0601L6.62249 15.8834L7.71855 16.1568L8.16824 14.3528C8.46767 14.4341 8.75826 14.5091 9.04273 14.5798L8.59456 16.3753L9.69195 16.6487L10.146 14.8288C12.0172 15.1829 13.4242 15.0401 14.0164 13.3476C14.4936 11.985 13.9926 11.199 13.0082 10.6865C13.7252 10.5211 14.2653 10.0495 14.4093 9.07536L14.4089 9.07512L14.4089 9.07522ZM11.9017 12.5909C11.5906 13.8411 9.6337 13.3242 8.73835 13.0877L8.73831 13.0877C8.65778 13.0665 8.58585 13.0475 8.52447 13.0322L9.12705 10.6166C9.20187 10.6353 9.2933 10.6558 9.39688 10.6791C10.323 10.8869 12.2205 11.3127 11.9018 12.5909H11.9017ZM9.58264 9.55793C10.3291 9.75715 11.9575 10.1917 12.2411 9.05547H12.2412C12.5308 7.89336 10.9482 7.54299 10.1753 7.37187C10.0884 7.35262 10.0117 7.33563 9.94905 7.32002L9.40273 9.51083C9.45431 9.52369 9.51483 9.53984 9.58264 9.55793Z" fill="white"/>
<defs>
<linearGradient id="paint0_linear_10047_139" x1="0" y1="0.5" x2="0" y2="20.5" gradientUnits="userSpaceOnUse">
<stop stop-color="#FCC538"/>
<stop offset="1" stop-color="#F7931A"/>
</linearGradient>
</defs>
</svg>
