<svg width="20" height="21" viewBox="0 0 20 21" fill="none" xmlns="http://www.w3.org/2000/svg">
<path d="M10 20.5C15.5417 20.5 20 16.0417 20 10.5C20 4.9583 15.5417 0.5 10 0.5C4.4583 0.5 0 4.9583 0 10.5C0 16.0417 4.4583 20.5 10 20.5Z" fill="#2775CA"/>
<path d="M12.7503 12.0833C12.7503 10.625 11.8753 10.125 10.1253 9.91671C8.87529 9.75001 8.62529 9.41671 8.62529 8.83331C8.62529 8.24991 9.04199 7.87501 9.87529 7.87501C10.6253 7.87501 11.042 8.12501 11.2503 8.75001C11.292 8.87501 11.417 8.95831 11.542 8.95831H12.2086C12.3753 8.95831 12.5003 8.83331 12.5003 8.66671V8.62501C12.3336 7.70831 11.5836 7.00001 10.6253 6.91671V5.91671C10.6253 5.75001 10.5003 5.62501 10.292 5.58331H9.66699C9.50029 5.58331 9.37529 5.70831 9.33359 5.91671V6.87501C8.08359 7.04171 7.29199 7.87501 7.29199 8.91671C7.29199 10.2917 8.12529 10.8333 9.87529 11.0417C11.042 11.25 11.417 11.5 11.417 12.1667C11.417 12.8334 10.8336 13.2917 10.042 13.2917C8.95859 13.2917 8.58359 12.8333 8.45859 12.2083C8.41699 12.0417 8.29199 11.9583 8.16699 11.9583H7.45859C7.29199 11.9583 7.16699 12.0833 7.16699 12.25V12.2917C7.33359 13.3333 8.00029 14.0833 9.37529 14.2917V15.2917C9.37529 15.4583 9.50029 15.5833 9.70859 15.625H10.3336C10.5003 15.625 10.6253 15.5 10.667 15.2917V14.2917C11.917 14.0833 12.7503 13.2083 12.7503 12.0833V12.0833Z" fill="white"/>
<path fill-rule="evenodd" clip-rule="evenodd" d="M4.16653 8.45829C2.95814 11.6667 4.62483 15.2917 7.87483 16.4583C7.99983 16.5417 8.12483 16.7083 8.12483 16.8333V17.4167C8.12483 17.5 8.12483 17.5417 8.08314 17.5833C8.04153 17.75 7.87483 17.8333 7.70814 17.75C5.37483 17 3.58314 15.2083 2.83314 12.875C1.58314 8.91669 3.74983 4.70829 7.70814 3.45829C7.74983 3.41669 7.83314 3.41669 7.87483 3.41669C8.04153 3.45829 8.12483 3.58329 8.12483 3.74999V4.33329C8.12483 4.54169 8.04153 4.66669 7.87483 4.74999C6.16653 5.37499 4.79153 6.70829 4.16653 8.45829ZM11.9165 3.62499C11.9581 3.45829 12.1248 3.37499 12.2915 3.45829C14.5831 4.20829 16.4165 5.99999 17.1665 8.37499C18.4165 12.3333 16.2498 16.5417 12.2915 17.7917C12.2498 17.8333 12.1665 17.8333 12.1248 17.8333C11.9581 17.7917 11.8748 17.6667 11.8748 17.5V16.9167C11.8748 16.7083 11.9581 16.5833 12.1248 16.5C13.8331 15.875 15.2081 14.5417 15.8331 12.7917C17.0415 9.58329 15.3748 5.95829 12.1248 4.79169C11.9998 4.70829 11.8748 4.54169 11.8748 4.37499V3.79169C11.8748 3.70829 11.8748 3.66669 11.9165 3.62499Z" fill="white"/>
</svg>
