<svg width="20" height="21" viewBox="0 0 20 21" fill="none" xmlns="http://www.w3.org/2000/svg">
<path d="M19.6986 12.919C18.363 18.2762 12.937 21.5365 7.57919 20.2006C2.22361 18.865 -1.03667 13.4387 0.299485 8.08197C1.63447 2.72419 7.06044 -0.536338 12.4166 0.799234C17.7741 2.13481 21.0341 7.5617 19.6984 12.9191L19.6985 12.919H19.6986Z" fill="#50AF95"/>
<path fill-rule="evenodd" clip-rule="evenodd" d="M11.2654 11.6337V11.6337C11.1947 11.639 10.8294 11.6608 10.0145 11.6608C9.3663 11.6608 8.90611 11.6413 8.74465 11.6337V11.6337C6.23979 11.5235 4.37012 11.0875 4.37012 10.5654C4.37012 10.0433 6.23979 9.60787 8.74465 9.49592V11.1994C8.90846 11.2112 9.3775 11.2389 10.0257 11.2389C10.8035 11.2389 11.193 11.2065 11.2631 11.2V9.4971C13.7626 9.60846 15.6282 10.0445 15.6282 10.5654C15.6282 11.0863 13.7632 11.5223 11.2631 11.6331V11.6331L11.2654 11.6337ZM11.2654 9.32091V7.79655H14.7537V5.47198H5.25634V7.79655H8.74406V9.32033C5.90922 9.45055 3.77734 10.0121 3.77734 10.685C3.77734 11.3579 5.90922 11.9189 8.74406 12.0497V16.9345H11.2648V12.0479C14.0932 11.9177 16.2215 11.3567 16.2215 10.6844C16.2215 10.0121 14.095 9.45114 11.2648 9.32033V9.32033L11.2654 9.32091Z" fill="white"/>
</svg>
