<svg width="132" height="32" viewBox="16 16 132 32" fill="none" xmlns="http://www.w3.org/2000/svg">
<g filter="url(#filter0_d_5_161)">
<path fill-rule="evenodd" clip-rule="evenodd" d="M30.378 18.2326C30.9945 18.2326 31.4943 17.7328 31.4943 17.1163C31.4943 16.4998 30.9945 16 30.378 16C29.7615 16 29.2617 16.4998 29.2617 17.1163C29.2617 17.7328 29.7615 18.2326 30.378 18.2326ZM36.823 22.3256C37.645 22.3256 38.3114 21.6592 38.3114 20.8372C38.3114 20.0152 37.645 19.3488 36.823 19.3488C36.001 19.3488 35.3346 20.0152 35.3346 20.8372C35.3346 21.6592 36.001 22.3256 36.823 22.3256ZM18.9767 32C18.9767 32.822 18.3104 33.4884 17.4884 33.4884C16.6664 33.4884 16 32.822 16 32C16 31.178 16.6664 30.5116 17.4884 30.5116C18.3104 30.5116 18.9767 31.178 18.9767 32ZM25.4215 43.1628C25.4215 43.9848 24.7551 44.6512 23.9331 44.6512C23.1111 44.6512 22.4448 43.9848 22.4448 43.1628C22.4448 42.3408 23.1111 41.6744 23.9331 41.6744C24.7551 41.6744 25.4215 42.3408 25.4215 43.1628ZM36.823 44.6512C37.645 44.6512 38.3114 43.9848 38.3114 43.1628C38.3114 42.3408 37.645 41.6744 36.823 41.6744C36.001 41.6744 35.3346 42.3408 35.3346 43.1628C35.3346 43.9848 36.001 44.6512 36.823 44.6512ZM44.7561 32C44.7561 32.822 44.0898 33.4884 43.2678 33.4884C42.4458 33.4884 41.7794 32.822 41.7794 32C41.7794 31.178 42.4458 30.5116 43.2678 30.5116C44.0898 30.5116 44.7561 31.178 44.7561 32ZM25.4215 20.8372C25.4215 21.6592 24.7551 22.3256 23.9331 22.3256C23.1111 22.3256 22.4448 21.6592 22.4448 20.8372C22.4448 20.0152 23.1111 19.3488 23.9331 19.3488C24.7551 19.3488 25.4215 20.0152 25.4215 20.8372ZM30.378 34.2326C31.611 34.2326 32.6106 33.233 32.6106 32C32.6106 30.767 31.611 29.7674 30.378 29.7674C29.145 29.7674 28.1455 30.767 28.1455 32C28.1455 33.233 29.145 34.2326 30.378 34.2326ZM38.6834 35.7209C38.6834 36.7484 37.8504 37.5814 36.8229 37.5814C35.7954 37.5814 34.9624 36.7484 34.9624 35.7209C34.9624 34.6934 35.7954 33.8605 36.8229 33.8605C37.8504 33.8605 38.6834 34.6934 38.6834 35.7209ZM30.378 41.3023C31.4055 41.3023 32.2384 40.4694 32.2384 39.4419C32.2384 38.4144 31.4055 37.5814 30.378 37.5814C29.3504 37.5814 28.5175 38.4144 28.5175 39.4419C28.5175 40.4694 29.3504 41.3023 30.378 41.3023ZM25.7937 35.7209C25.7937 36.7484 24.9607 37.5814 23.9332 37.5814C22.9057 37.5814 22.0727 36.7484 22.0727 35.7209C22.0727 34.6934 22.9057 33.8605 23.9332 33.8605C24.9607 33.8605 25.7937 34.6934 25.7937 35.7209ZM36.8229 30.1395C37.8504 30.1395 38.6834 29.3066 38.6834 28.2791C38.6834 27.2516 37.8504 26.4186 36.8229 26.4186C35.7954 26.4186 34.9624 27.2516 34.9624 28.2791C34.9624 29.3066 35.7954 30.1395 36.8229 30.1395ZM32.2384 24.5581C32.2384 25.5857 31.4055 26.4186 30.378 26.4186C29.3504 26.4186 28.5175 25.5857 28.5175 24.5581C28.5175 23.5306 29.3504 22.6977 30.378 22.6977C31.4055 22.6977 32.2384 23.5306 32.2384 24.5581ZM23.9332 30.1395C24.9607 30.1395 25.7937 29.3066 25.7937 28.2791C25.7937 27.2516 24.9607 26.4186 23.9332 26.4186C22.9057 26.4186 22.0727 27.2516 22.0727 28.2791C22.0727 29.3066 22.9057 30.1395 23.9332 30.1395ZM18.6046 24.5582C18.6046 25.1747 18.1048 25.6744 17.4883 25.6744C16.8718 25.6744 16.372 25.1747 16.372 24.5582C16.372 23.9416 16.8718 23.4419 17.4883 23.4419C18.1048 23.4419 18.6046 23.9416 18.6046 24.5582ZM18.6046 39.4419C18.6046 40.0584 18.1048 40.5581 17.4883 40.5581C16.8718 40.5581 16.372 40.0584 16.372 39.4419C16.372 38.8254 16.8718 38.3256 17.4883 38.3256C18.1048 38.3256 18.6046 38.8254 18.6046 39.4419ZM30.378 48C30.9945 48 31.4943 47.5002 31.4943 46.8837C31.4943 46.2672 30.9945 45.7674 30.378 45.7674C29.7615 45.7674 29.2617 46.2672 29.2617 46.8837C29.2617 47.5002 29.7615 48 30.378 48ZM44.384 39.4419C44.384 40.0584 43.8842 40.5581 43.2677 40.5581C42.6512 40.5581 42.1514 40.0584 42.1514 39.4419C42.1514 38.8254 42.6512 38.3256 43.2677 38.3256C43.8842 38.3256 44.384 38.8254 44.384 39.4419ZM43.2677 25.6744C43.8842 25.6744 44.384 25.1747 44.384 24.5582C44.384 23.9416 43.8842 23.4419 43.2677 23.4419C42.6512 23.4419 42.1514 23.9416 42.1514 24.5582C42.1514 25.1747 42.6512 25.6744 43.2677 25.6744Z" fill="#F16617"/>
<path d="M62.1561 25.1H67.8661C68.7928 25.1 69.5728 25.29 70.2061 25.67C70.8461 26.0433 71.3228 26.5333 71.6361 27.14C71.9494 27.74 72.1061 28.38 72.1061 29.06C72.1061 29.5867 72.0194 30.0633 71.8461 30.49C71.6794 30.9167 71.4394 31.2767 71.1261 31.57C70.8128 31.8567 70.4394 32.0667 70.0061 32.2V31.7C70.5928 31.8333 71.0928 32.07 71.5061 32.41C71.9261 32.75 72.2428 33.1633 72.4561 33.65C72.6694 34.13 72.7761 34.6533 72.7761 35.22C72.7761 36.08 72.6094 36.8333 72.2761 37.48C71.9494 38.12 71.4628 38.6167 70.8161 38.97C70.1694 39.3233 69.3794 39.5 68.4461 39.5H62.1561V25.1ZM68.1461 37.23C68.5661 37.23 68.9428 37.1467 69.2761 36.98C69.6094 36.8067 69.8694 36.5633 70.0561 36.25C70.2494 35.9367 70.3461 35.57 70.3461 35.15C70.3461 34.7567 70.2594 34.4067 70.0861 34.1C69.9194 33.7933 69.6728 33.55 69.3461 33.37C69.0261 33.19 68.6494 33.1 68.2161 33.1H64.5961V37.23H68.1461ZM67.8361 30.85C68.1828 30.85 68.4928 30.7833 68.7661 30.65C69.0461 30.5167 69.2628 30.3167 69.4161 30.05C69.5761 29.7833 69.6561 29.4667 69.6561 29.1C69.6561 28.76 69.5828 28.46 69.4361 28.2C69.2961 27.94 69.0861 27.7333 68.8061 27.58C68.5328 27.4267 68.2094 27.35 67.8361 27.35H64.5961V30.85H67.8361ZM74.9733 24.85H77.3833V27.06H74.9733V24.85ZM74.9733 28.7H77.3833V39.5H74.9733V28.7ZM86.7088 39.5C85.5288 39.7267 84.4721 39.7433 83.5388 39.55C82.6054 39.3567 81.9421 38.8967 81.5488 38.17C81.3554 37.8033 81.2354 37.4333 81.1888 37.06C81.1421 36.68 81.1254 36.18 81.1388 35.56V35.09V25.7H83.5388V34.95V35.26C83.5321 35.6933 83.5388 36.0333 83.5588 36.28C83.5854 36.52 83.6521 36.7233 83.7588 36.89C83.9854 37.2567 84.3388 37.4767 84.8188 37.55C85.3054 37.6167 85.9354 37.5933 86.7088 37.48V39.5ZM79.1788 28.7H86.7088V30.59H79.1788V28.7ZM89.0506 25.1H95.0006C95.434 25.1 95.8173 25.1267 96.1506 25.18C96.964 25.3 97.644 25.5733 98.1906 26C98.7373 26.4267 99.144 26.9633 99.4106 27.61C99.684 28.25 99.8206 28.9767 99.8206 29.79C99.8206 30.59 99.6873 31.3133 99.4206 31.96C99.154 32.6 98.7506 33.1333 98.2106 33.56C97.6706 33.98 97.0006 34.2533 96.2006 34.38L95.1706 34.47H91.4606V39.5H89.0506V25.1ZM94.4806 33.64L96.9306 33.1L100.051 39.5H97.3206L94.4806 33.64ZM94.9006 32.22C95.2673 32.22 95.5706 32.1867 95.8106 32.12C96.184 32.0267 96.4873 31.8567 96.7206 31.61C96.9606 31.3633 97.1306 31.0833 97.2306 30.77C97.3373 30.45 97.3906 30.1233 97.3906 29.79C97.3906 29.45 97.3373 29.1233 97.2306 28.81C97.1306 28.49 96.9606 28.21 96.7206 27.97C96.4873 27.7233 96.184 27.55 95.8106 27.45C95.5706 27.39 95.2673 27.36 94.9006 27.36H91.4606V32.22H94.9006ZM106.304 39.81C105.097 39.81 104.177 39.5067 103.544 38.9C102.917 38.2867 102.51 37.6167 102.324 36.89C102.144 36.1633 102.054 35.4433 102.054 34.73V28.7H104.494V33.9C104.494 34.5267 104.55 35.0967 104.664 35.61C104.777 36.1167 105.02 36.5667 105.394 36.96C105.767 37.3467 106.307 37.54 107.014 37.54C107.48 37.54 107.897 37.4433 108.264 37.25C108.637 37.05 108.944 36.7067 109.184 36.22C109.424 35.7333 109.544 35.0767 109.544 34.25L110.974 34.86C110.974 35.7933 110.794 36.6333 110.434 37.38C110.074 38.1267 109.54 38.72 108.834 39.16C108.134 39.5933 107.29 39.81 106.304 39.81ZM109.834 36.15H109.544V28.7H111.964V39.5H109.834V36.15ZM122.243 34.3C122.243 33.6733 122.187 33.1067 122.073 32.6C121.96 32.0867 121.717 31.6367 121.343 31.25C120.97 30.8567 120.43 30.66 119.723 30.66C119.257 30.66 118.837 30.76 118.463 30.96C118.097 31.1533 117.793 31.4933 117.553 31.98C117.313 32.4667 117.193 33.1233 117.193 33.95L115.763 33.34C115.763 32.4067 115.943 31.5667 116.303 30.82C116.663 30.0733 117.193 29.4833 117.893 29.05C118.6 28.61 119.447 28.39 120.433 28.39C121.64 28.39 122.557 28.6967 123.183 29.31C123.817 29.9167 124.223 30.5833 124.403 31.31C124.59 32.0367 124.683 32.7567 124.683 33.47V39.5H122.243V34.3ZM114.753 28.7H116.903V32.05H117.193V39.5H114.753V28.7ZM132.027 39.8C130.947 39.8 129.99 39.5667 129.157 39.1C128.324 38.6267 127.674 37.9667 127.207 37.12C126.747 36.2667 126.517 35.3 126.517 34.22C126.517 33.0533 126.744 32.0333 127.197 31.16C127.65 30.28 128.28 29.6 129.087 29.12C129.9 28.64 130.834 28.4 131.887 28.4C132.994 28.4 133.94 28.66 134.727 29.18C135.52 29.7 136.104 30.44 136.477 31.4C136.857 32.36 137.004 33.4833 136.917 34.77H134.527V33.89C134.52 33.1033 134.427 32.4633 134.247 31.97C134.067 31.4767 133.79 31.11 133.417 30.87C133.05 30.63 132.574 30.51 131.987 30.51C131.334 30.51 130.79 30.6467 130.357 30.92C129.924 31.1867 129.6 31.5867 129.387 32.12C129.174 32.6533 129.067 33.3133 129.067 34.1C129.067 34.8333 129.174 35.4567 129.387 35.97C129.6 36.4833 129.917 36.8733 130.337 37.14C130.764 37.4067 131.28 37.54 131.887 37.54C132.474 37.54 132.984 37.41 133.417 37.15C133.85 36.8833 134.184 36.5 134.417 36L136.797 36.72C136.53 37.36 136.154 37.9133 135.667 38.38C135.187 38.84 134.634 39.1933 134.007 39.44C133.38 39.68 132.72 39.8 132.027 39.8ZM128.307 32.95H135.737V34.77H128.307V32.95ZM143.338 39.8C142.458 39.8 141.681 39.6667 141.008 39.4C140.334 39.1267 139.788 38.7367 139.368 38.23C138.954 37.7167 138.688 37.0967 138.568 36.37L141.028 35.99C141.108 36.35 141.258 36.66 141.478 36.92C141.704 37.1733 141.988 37.37 142.328 37.51C142.674 37.6433 143.068 37.71 143.508 37.71C143.888 37.71 144.214 37.66 144.488 37.56C144.761 37.4533 144.968 37.3033 145.108 37.11C145.254 36.9167 145.328 36.6867 145.328 36.42C145.328 36.16 145.268 35.96 145.148 35.82C145.028 35.6733 144.784 35.5333 144.418 35.4C144.051 35.2667 143.438 35.0867 142.578 34.86C141.658 34.62 140.934 34.3633 140.408 34.09C139.881 33.81 139.501 33.4833 139.268 33.11C139.034 32.73 138.918 32.2667 138.918 31.72C138.918 31.0533 139.091 30.47 139.438 29.97C139.791 29.4633 140.288 29.0767 140.928 28.81C141.568 28.5367 142.314 28.4 143.168 28.4C144.001 28.4 144.744 28.53 145.398 28.79C146.051 29.05 146.578 29.4233 146.978 29.91C147.378 30.39 147.624 30.95 147.718 31.59L145.258 32.03C145.211 31.7233 145.101 31.46 144.928 31.24C144.754 31.0133 144.521 30.8367 144.228 30.71C143.941 30.5833 143.601 30.51 143.208 30.49C142.834 30.47 142.504 30.5033 142.218 30.59C141.931 30.6767 141.708 30.8067 141.548 30.98C141.394 31.1533 141.318 31.36 141.318 31.6C141.318 31.8133 141.388 31.9933 141.528 32.14C141.674 32.28 141.948 32.4233 142.348 32.57C142.748 32.71 143.388 32.89 144.268 33.11C145.141 33.33 145.831 33.5833 146.338 33.87C146.851 34.15 147.221 34.4867 147.448 34.88C147.681 35.2667 147.798 35.7433 147.798 36.31C147.798 37.03 147.618 37.6533 147.258 38.18C146.904 38.7 146.391 39.1 145.718 39.38C145.051 39.66 144.258 39.8 143.338 39.8Z" fill="currentColor"/>
</g>
<defs>
<filter id="filter0_d_5_161" x="0" y="0" width="164.756" height="64" filterUnits="userSpaceOnUse" color-interpolation-filters="sRGB">
<feFlood flood-opacity="0" result="BackgroundImageFix"/>
<feColorMatrix in="SourceAlpha" type="matrix" values="0 0 0 0 0 0 0 0 0 0 0 0 0 0 0 0 0 0 127 0" result="hardAlpha"/>
<feOffset/>
<feGaussianBlur stdDeviation="8"/>
<feComposite in2="hardAlpha" operator="out"/>
<feColorMatrix type="matrix" values="0 0 0 0 0 0 0 0 0 0 0 0 0 0 0 0 0 0 0.04 0"/>
<feBlend mode="normal" in2="BackgroundImageFix" result="effect1_dropShadow_5_161"/>
<feBlend mode="normal" in="SourceGraphic" in2="effect1_dropShadow_5_161" result="shape"/>
</filter>
</defs>
</svg>
